# xmcd
# 
# Track frame offsets:
#     150
#     17492
#     28547
#     41115
#     53357
#     63480
#     81325
#     91777
#     105622
#     115357
#     126857
#     132407
#     150347
#     160005
#     174705
#     185395
#     196609
#     211340
#     222137
#     238622
#     249295
#     261102
#     270377
#     281857
#     296815
# 
# Disc length: 4067
# 
# Revision: 2
# Processed by: cddbd v1.5.2PL0 Copyright (c) Steve Scherf et al.
# Submitted via: fre:ac v1.0.27
# 
DISCID=5a0fe119
DTITLE=Country Ballads - Country Ballads CD4
DYEAR=2002
DGENRE=Country
TTITLE0=Al Hirt and Ace Cannon - Always on my mind
TTITLE1=Jerry Lee Lewis - Iforgot to remember to forget
TTITLE2=Kingston Trio - Greenback dollar
TTITLE3=Faron Young - Country girl
TTITLE4=Porter Wagon - The green green grass of home
TTITLE5=Alan Jackson - Chattahoochie
TTITLE6=Waylon Jaynings - Money
TTITLE7=Dolly Parton - Coat of many colors
TTITLE8=Mickey Gilley - Fraulein
TTITLE9=Patsy Cline - I've loved and lost again
TTITLE10=Willie Nelson - The ghost
TTITLE11=John Anderson - Seminole wind
TTITLE12=Ned Miller - From a jack to a king
TTITLE13=Don Gibson - (sensuous) Woman
TTITLE14=Kenny Rogers and The First Edition - She even woke me up to say goodbye
TTITLE15=Dave Dudley - Cowboy boots
TTITLE16=Lee Greenwood - Mornin' ride
TTITLE17=Jim Reeves - He'll have to go
TTITLE18=Townes Van Zandt - Pancho and Lefty
TTITLE19=Charlie Rich - Who wil the next fool be
TTITLE20=Johnny Paycheck - Take this job and shove it
TTITLE21=Jimmy Dean - The first thing every morning
TTITLE22=Webb Pierce - Slowly
TTITLE23=Jeannie C. Riley - Happer valley P.T.A.
TTITLE24=Johnny Cash - Born to lose
EXTD=YEAR: 2002
EXTT0=
EXTT1=
EXTT2=
EXTT3=
EXTT4=
EXTT5=
EXTT6=
EXTT7=
EXTT8=
EXTT9=
EXTT10=
EXTT11=
EXTT12=
EXTT13=
EXTT14=
EXTT15=
EXTT16=
EXTT17=
EXTT18=
EXTT19=
EXTT20=
EXTT21=
EXTT22=
EXTT23=
EXTT24=
PLAYORDER=
